<svg width="1280" height="72" viewBox="0 0 1280 72" fill="none" xmlns="http://www.w3.org/2000/svg">
<path d="M49.8125 36C49.8125 36.2486 49.7137 36.4871 49.5379 36.6629C49.3621 36.8387 49.1236 36.9375 48.875 36.9375H35.125C34.8764 36.9375 34.6379 36.8387 34.4621 36.6629C34.2863 36.4871 34.1875 36.2486 34.1875 36C34.1875 35.7514 34.2863 35.5129 34.4621 35.3371C34.6379 35.1613 34.8764 35.0625 35.125 35.0625H48.875C49.1236 35.0625 49.3621 35.1613 49.5379 35.3371C49.7137 35.5129 49.8125 35.7514 49.8125 36ZM35.125 31.9375H48.875C49.1236 31.9375 49.3621 31.8387 49.5379 31.6629C49.7137 31.4871 49.8125 31.2486 49.8125 31C49.8125 30.7514 49.7137 30.5129 49.5379 30.3371C49.3621 30.1613 49.1236 30.0625 48.875 30.0625H35.125C34.8764 30.0625 34.6379 30.1613 34.4621 30.3371C34.2863 30.5129 34.1875 30.7514 34.1875 31C34.1875 31.2486 34.2863 31.4871 34.4621 31.6629C34.6379 31.8387 34.8764 31.9375 35.125 31.9375ZM48.875 40.0625H35.125C34.8764 40.0625 34.6379 40.1613 34.4621 40.3371C34.2863 40.5129 34.1875 40.7514 34.1875 41C34.1875 41.2486 34.2863 41.4871 34.4621 41.6629C34.6379 41.8387 34.8764 41.9375 35.125 41.9375H48.875C49.1236 41.9375 49.3621 41.8387 49.5379 41.6629C49.7137 41.4871 49.8125 41.2486 49.8125 41C49.8125 40.7514 49.7137 40.5129 49.5379 40.3371C49.3621 40.1613 49.1236 40.0625 48.875 40.0625Z" fill="#F1F5F9"/>
<path d="M61.4504 41V30.024H65.0824L66.6504 35.64C66.7144 35.8427 66.7784 36.0827 66.8424 36.36C66.9064 36.6373 66.9704 36.9147 67.0344 37.192C67.109 37.4587 67.1677 37.6987 67.2104 37.912H67.3384C67.3597 37.7307 67.397 37.5173 67.4504 37.272C67.5037 37.016 67.5624 36.744 67.6264 36.456C67.6904 36.168 67.7597 35.8907 67.8344 35.624L69.4024 30.024H72.9704V41H70.6184V35.8C70.6184 35.32 70.6184 34.84 70.6184 34.36C70.629 33.8693 70.6397 33.4427 70.6504 33.08C70.6717 32.7173 70.6824 32.4827 70.6824 32.376H70.5544C70.533 32.4933 70.4797 32.712 70.3944 33.032C70.3197 33.3413 70.2344 33.672 70.1384 34.024C70.053 34.376 69.973 34.68 69.8984 34.936L68.1864 41H66.1064L64.3784 34.952C64.3144 34.728 64.2397 34.4667 64.1544 34.168C64.0797 33.8587 64.005 33.544 63.9304 33.224C63.8664 32.8933 63.8024 32.6107 63.7384 32.376H63.6104C63.621 32.664 63.6317 33.0107 63.6424 33.416C63.653 33.8107 63.6637 34.2213 63.6744 34.648C63.685 35.064 63.6904 35.448 63.6904 35.8V41H61.4504ZM79.0355 41.192C78.1075 41.192 77.3288 41.0373 76.6995 40.728C76.0702 40.408 75.5955 39.9227 75.2755 39.272C74.9555 38.6213 74.7955 37.7947 74.7955 36.792C74.7955 35.7787 74.9555 34.952 75.2755 34.312C75.5955 33.6613 76.0648 33.1813 76.6835 32.872C77.3128 32.552 78.0808 32.392 78.9875 32.392C79.8408 32.392 80.5608 32.5467 81.1475 32.856C81.7342 33.1547 82.1768 33.624 82.4755 34.264C82.7742 34.8933 82.9235 35.7093 82.9235 36.712V37.288H77.0515C77.0728 37.7787 77.1475 38.1947 77.2755 38.536C77.4142 38.8773 77.6222 39.1333 77.8995 39.304C78.1875 39.464 78.5662 39.544 79.0355 39.544C79.2915 39.544 79.5208 39.512 79.7235 39.448C79.9368 39.384 80.1182 39.288 80.2675 39.16C80.4168 39.032 80.5342 38.872 80.6195 38.68C80.7048 38.488 80.7475 38.2693 80.7475 38.024H82.9235C82.9235 38.5573 82.8275 39.0213 82.6355 39.416C82.4435 39.8107 82.1768 40.1413 81.8355 40.408C81.4942 40.664 81.0835 40.8613 80.6035 41C80.1342 41.128 79.6115 41.192 79.0355 41.192ZM77.0835 35.88H80.6355C80.6355 35.56 80.5928 35.2827 80.5075 35.048C80.4328 34.8133 80.3262 34.6213 80.1875 34.472C80.0488 34.3227 79.8782 34.216 79.6755 34.152C79.4835 34.0773 79.2648 34.04 79.0195 34.04C78.6142 34.04 78.2728 34.1093 77.9955 34.248C77.7288 34.376 77.5208 34.5787 77.3715 34.856C77.2328 35.1227 77.1368 35.464 77.0835 35.88ZM84.5553 41V32.584H86.3953L86.5713 33.736H86.6833C86.8753 33.4587 87.1046 33.2187 87.3713 33.016C87.6486 32.8133 87.9579 32.6587 88.2993 32.552C88.6406 32.4453 89.0139 32.392 89.4193 32.392C89.9739 32.392 90.4593 32.4933 90.8753 32.696C91.2913 32.8987 91.6113 33.2187 91.8353 33.656C92.0699 34.0933 92.1873 34.664 92.1873 35.368V41H89.9633V35.72C89.9633 35.4533 89.9313 35.2293 89.8673 35.048C89.8033 34.856 89.7073 34.7013 89.5793 34.584C89.4619 34.456 89.3126 34.3653 89.1313 34.312C88.9499 34.2587 88.7473 34.232 88.5233 34.232C88.1926 34.232 87.8939 34.312 87.6273 34.472C87.3606 34.632 87.1526 34.8507 87.0033 35.128C86.8539 35.4053 86.7793 35.7253 86.7793 36.088V41H84.5553ZM96.9003 41.192C96.0469 41.192 95.3696 40.9573 94.8683 40.488C94.3669 40.0187 94.1163 39.2613 94.1163 38.216V32.584H96.3403V37.848C96.3403 38.1253 96.3723 38.36 96.4363 38.552C96.5003 38.7333 96.5909 38.8827 96.7083 39C96.8363 39.1173 96.9909 39.2027 97.1723 39.256C97.3536 39.3093 97.5563 39.336 97.7803 39.336C98.1109 39.336 98.4096 39.256 98.6763 39.096C98.9429 38.936 99.1509 38.7173 99.3003 38.44C99.4496 38.152 99.5243 37.832 99.5243 37.48V32.584H101.748V41H99.9243L99.7643 39.848H99.6523C99.4496 40.1147 99.2096 40.3493 98.9323 40.552C98.6656 40.7547 98.3616 40.9093 98.0203 41.016C97.6789 41.1333 97.3056 41.192 96.9003 41.192Z" fill="#F1F5F9"/>
<path d="M565.311 31.712V44H560.007V31.712H554.583V27.488H570.711V31.712H565.311ZM573.128 27.488H587.408V31.448H578.432V33.728H586.112V37.52H578.432V40.04H587.576V44H573.128V27.488ZM598.32 27.2C600.768 27.2 602.704 27.816 604.128 29.048C605.552 30.264 606.264 32.008 606.264 34.28H601.2C601.2 33.32 600.944 32.56 600.432 32C599.936 31.44 599.224 31.16 598.296 31.16C597.224 31.16 596.432 31.496 595.92 32.168C595.424 32.84 595.176 33.776 595.176 34.976V36.512C595.176 37.696 595.424 38.632 595.92 39.32C596.432 39.992 597.208 40.328 598.248 40.328C599.272 40.328 600.048 40.064 600.576 39.536C601.104 39.008 601.368 38.264 601.368 37.304H606.264C606.264 39.56 605.568 41.288 604.176 42.488C602.8 43.688 600.848 44.288 598.32 44.288C595.504 44.288 593.368 43.568 591.912 42.128C590.472 40.688 589.752 38.56 589.752 35.744C589.752 32.928 590.472 30.8 591.912 29.36C593.368 27.92 595.504 27.2 598.32 27.2ZM620.264 44V37.736H614.432V44H609.128V27.488H614.432V33.512H620.264V27.488H625.568V44H620.264ZM648.92 44L641.984 35.984V44H637.112V27.488H641.744L648.68 35.624V27.488H653.552V44H648.92ZM657.104 27.488H671.384V31.448H662.408V33.728H670.088V37.52H662.408V40.04H671.552V44H657.104V27.488ZM686.832 44L684.696 33.944H684.6L682.464 44H676.632L672.768 27.488H678.288L680.184 36.848H680.28L682.152 27.488H687.384L689.376 36.848H689.472L691.248 27.488H696.528L692.664 44H686.832ZM705.36 27.2C707.472 27.2 709.208 27.632 710.568 28.496C711.928 29.344 712.624 30.608 712.656 32.288V32.576H707.688V32.48C707.688 32 707.512 31.6 707.16 31.28C706.808 30.96 706.272 30.8 705.552 30.8C704.848 30.8 704.304 30.904 703.92 31.112C703.552 31.32 703.368 31.576 703.368 31.88C703.368 32.312 703.624 32.632 704.136 32.84C704.648 33.048 705.472 33.264 706.608 33.488C707.936 33.76 709.024 34.048 709.872 34.352C710.736 34.64 711.488 35.12 712.128 35.792C712.768 36.464 713.096 37.376 713.112 38.528C713.112 40.48 712.448 41.928 711.12 42.872C709.808 43.816 708.048 44.288 705.84 44.288C703.264 44.288 701.256 43.856 699.816 42.992C698.392 42.128 697.68 40.6 697.68 38.408H702.696C702.696 39.24 702.912 39.8 703.344 40.088C703.776 40.36 704.448 40.496 705.36 40.496C706.032 40.496 706.584 40.424 707.016 40.28C707.464 40.136 707.688 39.84 707.688 39.392C707.688 38.992 707.44 38.696 706.944 38.504C706.464 38.296 705.672 38.08 704.568 37.856C703.224 37.568 702.112 37.272 701.232 36.968C700.352 36.648 699.584 36.128 698.928 35.408C698.272 34.688 697.944 33.712 697.944 32.48C697.944 30.672 698.64 29.344 700.032 28.496C701.44 27.632 703.216 27.2 705.36 27.2Z" fill="#60A5FA"/>
<path d="M1166.43 41V30.024H1172.7C1173.27 30.024 1173.79 30.136 1174.25 30.36C1174.72 30.584 1175.09 30.8987 1175.35 31.304C1175.62 31.7093 1175.75 32.184 1175.75 32.728C1175.75 33.1653 1175.67 33.5547 1175.51 33.896C1175.35 34.2373 1175.14 34.52 1174.86 34.744C1174.59 34.968 1174.29 35.1333 1173.95 35.24V35.304C1174.35 35.3893 1174.71 35.5493 1175.02 35.784C1175.34 36.0187 1175.59 36.3227 1175.77 36.696C1175.96 37.0587 1176.06 37.4907 1176.06 37.992C1176.06 38.6533 1175.9 39.208 1175.59 39.656C1175.3 40.104 1174.9 40.44 1174.39 40.664C1173.89 40.888 1173.33 41 1172.71 41H1166.43ZM1168.81 39.048H1172.25C1172.65 39.048 1172.97 38.936 1173.21 38.712C1173.47 38.488 1173.59 38.1413 1173.59 37.672C1173.59 37.3947 1173.54 37.1547 1173.43 36.952C1173.33 36.7493 1173.17 36.5947 1172.95 36.488C1172.74 36.3707 1172.47 36.312 1172.14 36.312H1168.81V39.048ZM1168.81 34.456H1171.98C1172.27 34.456 1172.51 34.4027 1172.7 34.296C1172.9 34.1787 1173.05 34.0293 1173.15 33.848C1173.25 33.656 1173.31 33.4373 1173.31 33.192C1173.31 32.776 1173.19 32.4613 1172.95 32.248C1172.73 32.0347 1172.43 31.928 1172.06 31.928H1168.81V34.456ZM1180.5 41.192C1179.65 41.192 1178.97 40.9573 1178.47 40.488C1177.97 40.0187 1177.72 39.2613 1177.72 38.216V32.584H1179.94V37.848C1179.94 38.1253 1179.97 38.36 1180.04 38.552C1180.1 38.7333 1180.19 38.8827 1180.31 39C1180.44 39.1173 1180.59 39.2027 1180.77 39.256C1180.96 39.3093 1181.16 39.336 1181.38 39.336C1181.71 39.336 1182.01 39.256 1182.28 39.096C1182.54 38.936 1182.75 38.7173 1182.9 38.44C1183.05 38.152 1183.13 37.832 1183.13 37.48V32.584H1185.35V41H1183.53L1183.37 39.848H1183.25C1183.05 40.1147 1182.81 40.3493 1182.53 40.552C1182.27 40.7547 1181.96 40.9093 1181.62 41.016C1181.28 41.1333 1180.91 41.192 1180.5 41.192ZM1190.8 41.192C1190.21 41.192 1189.68 41.128 1189.22 41C1188.75 40.872 1188.35 40.696 1188.02 40.472C1187.68 40.2373 1187.43 39.96 1187.25 39.64C1187.08 39.32 1186.99 38.9573 1186.99 38.552C1186.99 38.5093 1186.99 38.4667 1186.99 38.424C1186.99 38.3813 1187 38.3493 1187.01 38.328H1189.15C1189.15 38.3493 1189.15 38.3707 1189.15 38.392C1189.15 38.4133 1189.15 38.4347 1189.15 38.456C1189.16 38.7227 1189.25 38.9413 1189.41 39.112C1189.57 39.272 1189.78 39.3893 1190.03 39.464C1190.3 39.5387 1190.58 39.576 1190.86 39.576C1191.12 39.576 1191.36 39.5547 1191.6 39.512C1191.84 39.4587 1192.05 39.368 1192.21 39.24C1192.38 39.112 1192.46 38.9467 1192.46 38.744C1192.46 38.488 1192.36 38.2907 1192.14 38.152C1191.94 38.0133 1191.67 37.9013 1191.33 37.816C1191 37.7307 1190.63 37.6347 1190.24 37.528C1189.88 37.4427 1189.51 37.3467 1189.15 37.24C1188.79 37.1227 1188.46 36.9733 1188.16 36.792C1187.87 36.6107 1187.64 36.376 1187.46 36.088C1187.27 35.7893 1187.18 35.416 1187.18 34.968C1187.18 34.5307 1187.28 34.152 1187.47 33.832C1187.66 33.5013 1187.92 33.2293 1188.26 33.016C1188.6 32.8027 1188.99 32.648 1189.44 32.552C1189.9 32.4453 1190.39 32.392 1190.91 32.392C1191.4 32.392 1191.86 32.4453 1192.29 32.552C1192.71 32.648 1193.09 32.7973 1193.41 33C1193.73 33.192 1193.98 33.4373 1194.16 33.736C1194.34 34.024 1194.43 34.3493 1194.43 34.712C1194.43 34.7867 1194.43 34.856 1194.43 34.92C1194.43 34.984 1194.43 35.0267 1194.42 35.048H1192.29V34.92C1192.29 34.728 1192.23 34.568 1192.11 34.44C1191.99 34.3013 1191.82 34.1947 1191.6 34.12C1191.39 34.0453 1191.12 34.008 1190.82 34.008C1190.6 34.008 1190.4 34.024 1190.22 34.056C1190.05 34.088 1189.9 34.136 1189.78 34.2C1189.65 34.264 1189.55 34.344 1189.47 34.44C1189.41 34.5253 1189.38 34.632 1189.38 34.76C1189.38 34.9413 1189.45 35.0907 1189.6 35.208C1189.76 35.3147 1189.97 35.4053 1190.22 35.48C1190.48 35.5547 1190.76 35.6347 1191.07 35.72C1191.46 35.8267 1191.86 35.9333 1192.27 36.04C1192.7 36.136 1193.09 36.2693 1193.46 36.44C1193.82 36.6107 1194.11 36.856 1194.34 37.176C1194.56 37.4853 1194.67 37.9067 1194.67 38.44C1194.67 38.952 1194.57 39.384 1194.37 39.736C1194.18 40.088 1193.9 40.3707 1193.55 40.584C1193.2 40.7973 1192.79 40.952 1192.32 41.048C1191.85 41.144 1191.34 41.192 1190.8 41.192ZM1199.98 41.192C1199.08 41.192 1198.33 41.0373 1197.72 40.728C1197.11 40.408 1196.65 39.9227 1196.33 39.272C1196.02 38.6107 1195.87 37.784 1195.87 36.792C1195.87 35.7787 1196.02 34.952 1196.33 34.312C1196.65 33.6613 1197.11 33.176 1197.72 32.856C1198.34 32.536 1199.09 32.376 1199.98 32.376C1200.55 32.376 1201.07 32.4453 1201.53 32.584C1202 32.7227 1202.4 32.936 1202.75 33.224C1203.09 33.512 1203.34 33.8693 1203.51 34.296C1203.7 34.712 1203.79 35.208 1203.79 35.784H1201.56C1201.56 35.4 1201.5 35.0853 1201.39 34.84C1201.27 34.5947 1201.09 34.408 1200.84 34.28C1200.61 34.152 1200.31 34.088 1199.95 34.088C1199.52 34.088 1199.17 34.184 1198.91 34.376C1198.64 34.568 1198.44 34.8507 1198.31 35.224C1198.19 35.5973 1198.12 36.0613 1198.12 36.616V36.984C1198.12 37.528 1198.19 37.9867 1198.31 38.36C1198.45 38.7333 1198.66 39.016 1198.94 39.208C1199.22 39.3893 1199.58 39.48 1200.03 39.48C1200.39 39.48 1200.69 39.416 1200.92 39.288C1201.17 39.16 1201.35 38.968 1201.48 38.712C1201.61 38.456 1201.67 38.1467 1201.67 37.784H1203.79C1203.79 38.328 1203.7 38.8133 1203.51 39.24C1203.34 39.6667 1203.09 40.024 1202.75 40.312C1202.42 40.6 1202.02 40.8187 1201.55 40.968C1201.08 41.1173 1200.55 41.192 1199.98 41.192ZM1207.68 41.192C1207.4 41.192 1207.1 41.16 1206.78 41.096C1206.47 41.032 1206.18 40.92 1205.9 40.76C1205.62 40.5893 1205.4 40.3493 1205.21 40.04C1205.04 39.72 1204.96 39.3147 1204.96 38.824C1204.96 38.2373 1205.09 37.752 1205.34 37.368C1205.6 36.984 1205.96 36.6853 1206.43 36.472C1206.91 36.248 1207.48 36.0933 1208.14 36.008C1208.8 35.9227 1209.53 35.88 1210.33 35.88V35.256C1210.33 35.0107 1210.29 34.7973 1210.21 34.616C1210.13 34.4347 1209.99 34.2907 1209.79 34.184C1209.6 34.0773 1209.33 34.024 1208.97 34.024C1208.62 34.024 1208.33 34.0667 1208.11 34.152C1207.9 34.2373 1207.74 34.3493 1207.65 34.488C1207.56 34.616 1207.52 34.76 1207.52 34.92V35.112H1205.36C1205.35 35.0587 1205.34 35.0107 1205.34 34.968C1205.34 34.9147 1205.34 34.8507 1205.34 34.776C1205.34 34.2853 1205.49 33.864 1205.79 33.512C1206.09 33.1493 1206.51 32.872 1207.05 32.68C1207.6 32.488 1208.23 32.392 1208.96 32.392C1209.74 32.392 1210.39 32.4933 1210.91 32.696C1211.44 32.8987 1211.85 33.1973 1212.13 33.592C1212.41 33.9867 1212.56 34.4827 1212.56 35.08V38.904C1212.56 39.096 1212.61 39.24 1212.72 39.336C1212.84 39.4213 1212.96 39.464 1213.1 39.464H1213.63V40.92C1213.52 40.9733 1213.36 41.0267 1213.13 41.08C1212.91 41.144 1212.64 41.176 1212.32 41.176C1212.01 41.176 1211.73 41.128 1211.49 41.032C1211.25 40.9467 1211.05 40.824 1210.89 40.664C1210.73 40.4933 1210.62 40.2907 1210.56 40.056H1210.45C1210.26 40.28 1210.04 40.4773 1209.77 40.648C1209.52 40.8187 1209.21 40.952 1208.86 41.048C1208.52 41.144 1208.13 41.192 1207.68 41.192ZM1208.43 39.512C1208.73 39.512 1209 39.4693 1209.23 39.384C1209.46 39.288 1209.66 39.1653 1209.82 39.016C1209.98 38.856 1210.1 38.664 1210.19 38.44C1210.29 38.216 1210.33 37.976 1210.33 37.72V37.256C1209.74 37.256 1209.2 37.2987 1208.73 37.384C1208.26 37.4587 1207.89 37.592 1207.61 37.784C1207.35 37.976 1207.21 38.2427 1207.21 38.584C1207.21 38.776 1207.26 38.9413 1207.36 39.08C1207.45 39.2187 1207.59 39.3253 1207.77 39.4C1207.96 39.4747 1208.17 39.512 1208.43 39.512ZM1214.73 41V32.584H1216.57L1216.75 33.896H1216.86C1216.97 33.6187 1217.11 33.368 1217.28 33.144C1217.45 32.9093 1217.66 32.7227 1217.92 32.584C1218.17 32.4453 1218.47 32.376 1218.81 32.376C1219 32.376 1219.16 32.3973 1219.31 32.44C1219.46 32.472 1219.57 32.504 1219.65 32.536V34.552H1218.96C1218.63 34.552 1218.33 34.6 1218.08 34.696C1217.83 34.7813 1217.63 34.92 1217.45 35.112C1217.28 35.304 1217.16 35.5387 1217.07 35.816C1217 36.0933 1216.96 36.4187 1216.96 36.792V41H1214.73Z" fill="#F1F5F9"/>
<path d="M1246.16 42.8367L1242.45 39.125C1243.57 37.6754 1244.08 35.8569 1243.91 34.0384C1243.73 32.2199 1242.86 30.5376 1241.49 29.3328C1240.12 28.128 1238.33 27.4908 1236.51 27.5506C1234.68 27.6104 1232.95 28.3626 1231.65 29.6547C1230.36 30.9467 1229.61 32.6819 1229.55 34.5082C1229.49 36.3345 1230.13 38.1152 1231.33 39.489C1232.54 40.8628 1234.22 41.7268 1236.04 41.9059C1237.86 42.0849 1239.68 41.5656 1241.13 40.4531L1244.84 44.1672C1244.93 44.2544 1245.03 44.3236 1245.14 44.3708C1245.26 44.418 1245.38 44.4423 1245.5 44.4423C1245.63 44.4423 1245.75 44.418 1245.86 44.3708C1245.98 44.3236 1246.08 44.2544 1246.17 44.1672C1246.25 44.08 1246.32 43.9765 1246.37 43.8625C1246.42 43.7486 1246.44 43.6265 1246.44 43.5031C1246.44 43.3798 1246.42 43.2577 1246.37 43.1438C1246.32 43.0298 1246.25 42.9263 1246.17 42.8391L1246.16 42.8367ZM1231.44 34.75C1231.44 33.6993 1231.75 32.6722 1232.33 31.7985C1232.92 30.9249 1233.75 30.244 1234.72 29.8419C1235.69 29.4398 1236.76 29.3346 1237.79 29.5396C1238.82 29.7446 1239.76 30.2505 1240.51 30.9935C1241.25 31.7365 1241.76 32.6831 1241.96 33.7136C1242.17 34.7441 1242.06 35.8123 1241.66 36.783C1241.26 37.7538 1240.58 38.5835 1239.7 39.1672C1238.83 39.7509 1237.8 40.0625 1236.75 40.0625C1235.34 40.0611 1233.99 39.5009 1233 38.5049C1232 37.5089 1231.44 36.1585 1231.44 34.75Z" fill="#F1F5F9"/>
</svg>
